<?xml version="1.0" encoding="UTF-8" standalone="no"?>
<svg
   xmlns:dc="http://purl.org/dc/elements/1.1/"
   xmlns:cc="http://creativecommons.org/ns#"
   xmlns:rdf="http://www.w3.org/1999/02/22-rdf-syntax-ns#"
   xmlns:svg="http://www.w3.org/2000/svg"
   xmlns="http://www.w3.org/2000/svg"
   xmlns:sodipodi="http://sodipodi.sourceforge.net/DTD/sodipodi-0.dtd"
   xmlns:inkscape="http://www.inkscape.org/namespaces/inkscape"
   width="24"
   height="24"
   fill-rule="evenodd"
   clip-rule="evenodd"
   version="1.1"
   id="svg4"
   sodipodi:docname="discord.svg"
   inkscape:version="0.92.4 5da689c313, 2019-01-14">
  <metadata
     id="metadata10">
    <rdf:RDF>
      <cc:Work
         rdf:about="">
        <dc:format>image/svg+xml</dc:format>
        <dc:type
           rdf:resource="http://purl.org/dc/dcmitype/StillImage" />
        <dc:title></dc:title>
      </cc:Work>
    </rdf:RDF>
  </metadata>
  <defs
     id="defs8" />
  <sodipodi:namedview
     pagecolor="#ffffff"
     bordercolor="#666666"
     borderopacity="1"
     objecttolerance="10"
     gridtolerance="10"
     guidetolerance="10"
     inkscape:pageopacity="0"
     inkscape:pageshadow="2"
     inkscape:window-width="1920"
     inkscape:window-height="1012"
     id="namedview6"
     showgrid="false"
     inkscape:zoom="9.8333333"
     inkscape:cx="-3.3559322"
     inkscape:cy="12"
     inkscape:window-x="0"
     inkscape:window-y="0"
     inkscape:window-maximized="1"
     inkscape:current-layer="svg4" />
  <path
     d="m 20.04,0 c 1.356,0 2.46,1.104 2.46,2.472 V 24 l -2.58,-2.28 -1.452,-1.344 -1.536,-1.428 0.636,2.22 H 3.96 C 2.604,21.168 1.5,20.064 1.5,18.696 V 2.472 C 1.5,1.104 2.604,0 3.96,0 Z M 15.408,15.672 C 18.06,15.588 19.08,13.848 19.08,13.848 19.08,9.984 17.352,6.852 17.352,6.852 15.624,5.556 13.98,5.592 13.98,5.592 L 13.812,5.784 C 15.852,6.408 16.8,7.308 16.8,7.308 15.552,6.624 14.328,6.288 13.188,6.156 12.324,6.06 11.496,6.084 10.764,6.18 L 10.56,6.204 C 10.14,6.24 9.12,6.396 7.836,6.96 7.392,7.164 7.128,7.308 7.128,7.308 c 0,0 0.996,-0.948 3.156,-1.572 l -0.12,-0.144 c 0,0 -1.644,-0.036 -3.372,1.26 0,0 -1.728,3.132 -1.728,6.996 0,0 1.008,1.74 3.66,1.824 0,0 0.444,-0.54 0.804,-0.996 -1.524,-0.456 -2.1,-1.416 -2.1,-1.416 l 0.336,0.204 0.048,0.036 0.047,0.027 0.014,0.006 0.047,0.027 c 0.3,0.168 0.6,0.3 0.876,0.408 0.492,0.192 1.08,0.384 1.764,0.516 0.9,0.168 1.956,0.228 3.108,0.012 0.564,-0.096 1.14,-0.264 1.74,-0.516 0.42,-0.156 0.888,-0.384 1.38,-0.708 0,0 -0.6,0.984 -2.172,1.428 0.36,0.456 0.792,0.972 0.792,0.972 z m -5.58,-5.604 c -0.684,0 -1.224,0.6 -1.224,1.332 0,0.732 0.552,1.332 1.224,1.332 0.684,0 1.224,-0.6 1.224,-1.332 0.012,-0.732 -0.54,-1.332 -1.224,-1.332 z m 4.38,0 c -0.684,0 -1.224,0.6 -1.224,1.332 0,0.732 0.552,1.332 1.224,1.332 0.684,0 1.224,-0.6 1.224,-1.332 0,-0.732 -0.54,-1.332 -1.224,-1.332 z"
     id="path2"
     inkscape:connector-curvature="0" />
</svg>
